<svg width="310" height="40" viewBox="0 0 310 40" fill="none" xmlns="http://www.w3.org/2000/svg">
<path d="M27.7 4.15V39H23.15V23.2H5.4V39H0.85V4.15H5.4V19.45H23.15V4.15H27.7ZM37.8191 7.15C36.9525 7.15 36.2191 6.85 35.6191 6.25C35.0191 5.65 34.7191 4.91666 34.7191 4.05C34.7191 3.18333 35.0191 2.45 35.6191 1.85C36.2191 1.25 36.9525 0.949998 37.8191 0.949998C38.6525 0.949998 39.3525 1.25 39.9191 1.85C40.5191 2.45 40.8191 3.18333 40.8191 4.05C40.8191 4.91666 40.5191 5.65 39.9191 6.25C39.3525 6.85 38.6525 7.15 37.8191 7.15ZM40.0191 11.6V39H35.4691V11.6H40.0191ZM65.6539 4.15V39H61.1039V4.15H65.6539ZM85.0387 25.2C85.0387 22.4 85.6053 19.95 86.7387 17.85C87.872 15.7167 89.422 14.0667 91.3887 12.9C93.3887 11.7333 95.6053 11.15 98.0387 11.15C100.439 11.15 102.522 11.6667 104.289 12.7C106.055 13.7333 107.372 15.0333 108.239 16.6V11.6H112.839V39H108.239V33.9C107.339 35.5 105.989 36.8333 104.189 37.9C102.422 38.9333 100.355 39.45 97.9887 39.45C95.5553 39.45 93.3553 38.85 91.3887 37.65C89.422 36.45 87.872 34.7667 86.7387 32.6C85.6053 30.4333 85.0387 27.9667 85.0387 25.2ZM108.239 25.25C108.239 23.1833 107.822 21.3833 106.989 19.85C106.155 18.3167 105.022 17.15 103.589 16.35C102.189 15.5167 100.639 15.1 98.9387 15.1C97.2387 15.1 95.6887 15.5 94.2887 16.3C92.8887 17.1 91.772 18.2667 90.9387 19.8C90.1053 21.3333 89.6887 23.1333 89.6887 25.2C89.6887 27.3 90.1053 29.1333 90.9387 30.7C91.772 32.2333 92.8887 33.4167 94.2887 34.25C95.6887 35.05 97.2387 35.45 98.9387 35.45C100.639 35.45 102.189 35.05 103.589 34.25C105.022 33.4167 106.155 32.2333 106.989 30.7C107.822 29.1333 108.239 27.3167 108.239 25.25ZM153.478 11.1C155.611 11.1 157.511 11.55 159.178 12.45C160.844 13.3167 162.161 14.6333 163.128 16.4C164.094 18.1667 164.578 20.3167 164.578 22.85V39H160.078V23.5C160.078 20.7667 159.394 18.6833 158.028 17.25C156.694 15.7833 154.878 15.05 152.578 15.05C150.211 15.05 148.328 15.8167 146.928 17.35C145.528 18.85 144.828 21.0333 144.828 23.9V39H140.328V23.5C140.328 20.7667 139.644 18.6833 138.278 17.25C136.944 15.7833 135.128 15.05 132.828 15.05C130.461 15.05 128.578 15.8167 127.178 17.35C125.778 18.85 125.078 21.0333 125.078 23.9V39H120.528V11.6H125.078V15.55C125.978 14.1167 127.178 13.0167 128.678 12.25C130.211 11.4833 131.894 11.1 133.728 11.1C136.028 11.1 138.061 11.6167 139.828 12.65C141.594 13.6833 142.911 15.2 143.778 17.2C144.544 15.2667 145.811 13.7667 147.578 12.7C149.344 11.6333 151.311 11.1 153.478 11.1ZM196.421 39.35C194.121 39.35 192.055 38.95 190.221 38.15C188.421 37.3167 187.005 36.1833 185.971 34.75C184.938 33.2833 184.405 31.6 184.371 29.7H189.221C189.388 31.3333 190.055 32.7167 191.221 33.85C192.421 34.95 194.155 35.5 196.421 35.5C198.588 35.5 200.288 34.9667 201.521 33.9C202.788 32.8 203.421 31.4 203.421 29.7C203.421 28.3667 203.055 27.2833 202.321 26.45C201.588 25.6167 200.671 24.9833 199.571 24.55C198.471 24.1167 196.988 23.65 195.121 23.15C192.821 22.55 190.971 21.95 189.571 21.35C188.205 20.75 187.021 19.8167 186.021 18.55C185.055 17.25 184.571 15.5167 184.571 13.35C184.571 11.45 185.055 9.76666 186.021 8.3C186.988 6.83333 188.338 5.7 190.071 4.9C191.838 4.1 193.855 3.7 196.121 3.7C199.388 3.7 202.055 4.51667 204.121 6.15C206.221 7.78333 207.405 9.95 207.671 12.65H202.671C202.505 11.3167 201.805 10.15 200.571 9.15C199.338 8.11667 197.705 7.6 195.671 7.6C193.771 7.6 192.221 8.1 191.021 9.1C189.821 10.0667 189.221 11.4333 189.221 13.2C189.221 14.4667 189.571 15.5 190.271 16.3C191.005 17.1 191.888 17.7167 192.921 18.15C193.988 18.55 195.471 19.0167 197.371 19.55C199.671 20.1833 201.521 20.8167 202.921 21.45C204.321 22.05 205.521 23 206.521 24.3C207.521 25.5667 208.021 27.3 208.021 29.5C208.021 31.2 207.571 32.8 206.671 34.3C205.771 35.8 204.438 37.0167 202.671 37.95C200.905 38.8833 198.821 39.35 196.421 39.35ZM213.017 25.2C213.017 22.4 213.584 19.95 214.717 17.85C215.851 15.7167 217.401 14.0667 219.367 12.9C221.367 11.7333 223.584 11.15 226.017 11.15C228.417 11.15 230.501 11.6667 232.267 12.7C234.034 13.7333 235.351 15.0333 236.217 16.6V11.6H240.817V39H236.217V33.9C235.317 35.5 233.967 36.8333 232.167 37.9C230.401 38.9333 228.334 39.45 225.967 39.45C223.534 39.45 221.334 38.85 219.367 37.65C217.401 36.45 215.851 34.7667 214.717 32.6C213.584 30.4333 213.017 27.9667 213.017 25.2ZM236.217 25.25C236.217 23.1833 235.801 21.3833 234.967 19.85C234.134 18.3167 233.001 17.15 231.567 16.35C230.167 15.5167 228.617 15.1 226.917 15.1C225.217 15.1 223.667 15.5 222.267 16.3C220.867 17.1 219.751 18.2667 218.917 19.8C218.084 21.3333 217.667 23.1333 217.667 25.2C217.667 27.3 218.084 29.1333 218.917 30.7C219.751 32.2333 220.867 33.4167 222.267 34.25C223.667 35.05 225.217 35.45 226.917 35.45C228.617 35.45 230.167 35.05 231.567 34.25C233.001 33.4167 234.134 32.2333 234.967 30.7C235.801 29.1333 236.217 27.3167 236.217 25.25ZM262.106 11.1C264.173 11.1 266.04 11.55 267.706 12.45C269.373 13.3167 270.673 14.6333 271.606 16.4C272.573 18.1667 273.056 20.3167 273.056 22.85V39H268.556V23.5C268.556 20.7667 267.873 18.6833 266.506 17.25C265.14 15.7833 263.273 15.05 260.906 15.05C258.506 15.05 256.59 15.8 255.156 17.3C253.756 18.8 253.056 20.9833 253.056 23.85V39H248.506V2H253.056V15.5C253.956 14.1 255.19 13.0167 256.756 12.25C258.356 11.4833 260.14 11.1 262.106 11.1ZM282.839 7.15C281.972 7.15 281.239 6.85 280.639 6.25C280.039 5.65 279.739 4.91666 279.739 4.05C279.739 3.18333 280.039 2.45 280.639 1.85C281.239 1.25 281.972 0.949998 282.839 0.949998C283.672 0.949998 284.372 1.25 284.939 1.85C285.539 2.45 285.839 3.18333 285.839 4.05C285.839 4.91666 285.539 5.65 284.939 6.25C284.372 6.85 283.672 7.15 282.839 7.15ZM285.039 11.6V39H280.489V11.6H285.039ZM297.343 2V39H292.793V2H297.343ZM306.548 39.3C305.681 39.3 304.948 39 304.348 38.4C303.748 37.8 303.448 37.0667 303.448 36.2C303.448 35.3333 303.748 34.6 304.348 34C304.948 33.4 305.681 33.1 306.548 33.1C307.381 33.1 308.081 33.4 308.648 34C309.248 34.6 309.548 35.3333 309.548 36.2C309.548 37.0667 309.248 37.8 308.648 38.4C308.081 39 307.381 39.3 306.548 39.3Z" fill="white"/>
</svg>
